<svg width="145" height="44" viewBox="0 0 145 44" fill="none" xmlns="http://www.w3.org/2000/svg">
<path d="M60.2326 21.3447H62.535V39.8694H60.2326V37.5935C59.0859 39.3401 57.4187 40.2134 55.231 40.2134C53.3785 40.2134 51.7995 39.543 50.494 38.2022C49.1884 36.8437 48.5356 35.1941 48.5356 33.2534C48.5356 31.3127 49.1884 29.672 50.494 28.3312C51.7995 26.9727 53.3785 26.2935 55.231 26.2935C57.4187 26.2935 59.0859 27.1668 60.2326 28.9134V21.3447ZM55.5221 37.9904C56.8629 37.9904 57.9832 37.5406 58.883 36.6408C59.7827 35.7234 60.2326 34.5943 60.2326 33.2534C60.2326 31.9126 59.7827 30.7923 58.883 29.8925C57.9832 28.9751 56.8629 28.5164 55.5221 28.5164C54.1989 28.5164 53.0874 28.9751 52.1876 29.8925C51.2879 30.7923 50.838 31.9126 50.838 33.2534C50.838 34.5943 51.2879 35.7234 52.1876 36.6408C53.0874 37.5406 54.1989 37.9904 55.5221 37.9904Z" fill="#FAFAFA"/>
<path d="M67.6375 34.312C67.8669 35.494 68.405 36.4114 69.2518 37.0642C70.1163 37.717 71.1749 38.0434 72.4275 38.0434C74.1741 38.0434 75.4443 37.3994 76.2383 36.1115L78.1966 37.223C76.9087 39.2166 74.968 40.2134 72.3745 40.2134C70.2751 40.2134 68.5638 39.5606 67.2406 38.2551C65.935 36.9319 65.2823 35.2647 65.2823 33.2534C65.2823 31.2598 65.9262 29.6014 67.2141 28.2782C68.502 26.955 70.1692 26.2935 72.2158 26.2935C74.1564 26.2935 75.7354 26.9815 76.9528 28.3576C78.1878 29.7161 78.8052 31.3569 78.8052 33.2799C78.8052 33.6151 78.7788 33.9591 78.7258 34.312H67.6375ZM72.2158 28.4635C70.9808 28.4635 69.9575 28.8163 69.146 29.522C68.3344 30.2101 67.8316 31.1363 67.6375 32.3007H76.4764C76.2824 31.0481 75.7884 30.0954 74.9945 29.4426C74.2005 28.7899 73.2743 28.4635 72.2158 28.4635Z" fill="#FAFAFA"/>
<path d="M88.0413 26.2935C89.5938 26.2935 90.8376 26.7874 91.7727 27.7754C92.7077 28.7458 93.1753 30.069 93.1753 31.745V39.8694H90.8729V31.8773C90.8729 30.8011 90.5818 29.9719 89.9996 29.3897C89.4174 28.7899 88.6147 28.4899 87.5914 28.4899C86.4447 28.4899 85.5184 28.8516 84.8127 29.575C84.107 30.2807 83.7542 31.3745 83.7542 32.8565V39.8694H81.4518V26.6375H83.7542V28.5429C84.6892 27.0433 86.1183 26.2935 88.0413 26.2935Z" fill="#FAFAFA"/>
<path d="M103.588 28.8604H100.068V36.0321C100.068 36.6849 100.191 37.1524 100.438 37.4347C100.703 37.6993 101.1 37.8405 101.629 37.8581C102.158 37.8581 102.811 37.8405 103.588 37.8052V39.8694C101.576 40.134 100.103 39.9752 99.1681 39.393C98.233 38.7932 97.7655 37.6729 97.7655 36.0321V28.8604H95.1456V26.6375H97.7655V23.6206L100.068 22.9326V26.6375H103.588V28.8604Z" fill="#FAFAFA"/>
<path d="M112.903 26.2935C114.455 26.2935 115.699 26.7874 116.634 27.7754C117.569 28.7458 118.037 30.069 118.037 31.745V39.8694H115.734V31.8773C115.734 30.8011 115.443 29.9719 114.861 29.3897C114.279 28.7899 113.476 28.4899 112.453 28.4899C111.306 28.4899 110.38 28.8516 109.674 29.575C108.968 30.2807 108.616 31.3745 108.616 32.8565V39.8694H106.313V21.3447H108.616V28.5429C109.551 27.0433 110.98 26.2935 112.903 26.2935Z" fill="#FAFAFA"/>
<path d="M122.865 34.312C123.094 35.494 123.633 36.4114 124.479 37.0642C125.344 37.717 126.402 38.0434 127.655 38.0434C129.402 38.0434 130.672 37.3994 131.466 36.1115L133.424 37.223C132.136 39.2166 130.196 40.2134 127.602 40.2134C125.503 40.2134 123.791 39.5606 122.468 38.2551C121.163 36.9319 120.51 35.2647 120.51 33.2534C120.51 31.2598 121.154 29.6014 122.442 28.2782C123.73 26.955 125.397 26.2935 127.443 26.2935C129.384 26.2935 130.963 26.9815 132.18 28.3576C133.415 29.7161 134.033 31.3569 134.033 33.2799C134.033 33.6151 134.006 33.9591 133.953 34.312H122.865ZM127.443 28.4635C126.208 28.4635 125.185 28.8163 124.374 29.522C123.562 30.2101 123.059 31.1363 122.865 32.3007H131.704C131.51 31.0481 131.016 30.0954 130.222 29.4426C129.428 28.7899 128.502 28.4635 127.443 28.4635Z" fill="#FAFAFA"/>
<path d="M138.982 28.8604C139.74 27.2197 141.117 26.3993 143.11 26.3993V28.8075C141.981 28.7546 141.011 29.0545 140.199 29.7073C139.388 30.3601 138.982 31.4098 138.982 32.8565V39.8694H136.679V26.6375H138.982V28.8604Z" fill="#FAFAFA"/>
<path fill-rule="evenodd" clip-rule="evenodd" d="M14.9797 39.8861L30.96 15.7108C33.2728 12.2119 31.5291 7.47368 27.5 6.30863L17.7193 3.48046C7.97687 0.663386 -0.368901 10.9331 4.38114 19.8934L14.9797 39.8861ZM14.6395 40.4008C14.6393 40.401 14.6396 40.4006 14.6395 40.4008ZM12.6181 41.8363C13.5544 43.6026 16.0398 43.7227 17.1421 42.0551L33.4626 17.3651C36.8913 12.1781 34.3064 5.15384 28.3333 3.4267L18.5526 0.598525C6.26548 -2.95437 -4.2602 9.99781 1.73056 21.2986L12.6181 41.8363Z" fill="#FF1F73"/>
<path fill-rule="evenodd" clip-rule="evenodd" d="M29.5561 39.8861L40.1547 19.8934C44.9047 10.9331 36.559 0.663386 26.8166 3.48046L17.0358 6.30863C13.0067 7.47368 11.263 12.2119 13.5758 15.7108L29.5561 39.8861ZM31.9178 41.8363C30.9815 43.6026 28.496 43.7227 27.3937 42.0551L11.0732 17.3651C7.6445 12.1781 10.2294 5.15384 16.2025 3.4267L25.9832 0.598525C38.2703 -2.95437 48.796 9.99781 42.8053 21.2986L31.9178 41.8363Z" fill="#FF1F73"/>
</svg>
