<svg width="145" height="44" viewBox="0 0 145 44" fill="none" xmlns="http://www.w3.org/2000/svg">
<path d="M60.2328 21.3452H62.5352V39.8698H60.2328V37.594C59.086 39.3406 57.4188 40.2139 55.2312 40.2139C53.3787 40.2139 51.7997 39.5435 50.4941 38.2026C49.1886 36.8442 48.5358 35.1946 48.5358 33.2539C48.5358 31.3132 49.1886 29.6725 50.4941 28.3316C51.7997 26.9732 53.3787 26.2939 55.2312 26.2939C57.4188 26.2939 59.086 27.1672 60.2328 28.9138V21.3452ZM55.5223 37.9909C56.8631 37.9909 57.9834 37.541 58.8832 36.6413C59.7829 35.7239 60.2328 34.5947 60.2328 33.2539C60.2328 31.9131 59.7829 30.7928 58.8832 29.893C57.9834 28.9756 56.8631 28.5169 55.5223 28.5169C54.1991 28.5169 53.0876 28.9756 52.1878 29.893C51.2881 30.7928 50.8382 31.9131 50.8382 33.2539C50.8382 34.5947 51.2881 35.7239 52.1878 36.6413C53.0876 37.541 54.1991 37.9909 55.5223 37.9909Z" fill="#16002B"/>
<path d="M67.6377 34.3125C67.8671 35.4945 68.4052 36.4119 69.252 37.0647C70.1165 37.7175 71.175 38.0438 72.4276 38.0438C74.1743 38.0438 75.4445 37.3999 76.2384 36.112L78.1967 37.2235C76.9088 39.2171 74.9682 40.2139 72.3747 40.2139C70.2753 40.2139 68.5639 39.5611 67.2407 38.2556C65.9352 36.9324 65.2824 35.2651 65.2824 33.2539C65.2824 31.2603 65.9264 29.6019 67.2143 28.2787C68.5022 26.9555 70.1694 26.2939 72.2159 26.2939C74.1566 26.2939 75.7356 26.982 76.9529 28.3581C78.1879 29.7166 78.8054 31.3573 78.8054 33.2804C78.8054 33.6156 78.7789 33.9596 78.726 34.3125H67.6377ZM72.2159 28.464C70.981 28.464 69.9577 28.8168 69.1461 29.5225C68.3346 30.2106 67.8318 31.1368 67.6377 32.3012H76.4766C76.2825 31.0486 75.7885 30.0959 74.9946 29.4431C74.2007 28.7903 73.2745 28.464 72.2159 28.464Z" fill="#16002B"/>
<path d="M88.0415 26.2939C89.594 26.2939 90.8378 26.7879 91.7729 27.7759C92.7079 28.7462 93.1754 30.0694 93.1754 31.7455V39.8698H90.8731V31.8778C90.8731 30.8016 90.582 29.9724 89.9998 29.3902C89.4176 28.7903 88.6149 28.4904 87.5916 28.4904C86.4448 28.4904 85.5186 28.8521 84.8129 29.5754C84.1072 30.2811 83.7543 31.375 83.7543 32.8569V39.8698H81.452V26.638H83.7543V28.5433C84.6894 27.0437 86.1184 26.2939 88.0415 26.2939Z" fill="#16002B"/>
<path d="M103.588 28.8609H100.068V36.0326C100.068 36.6854 100.192 37.1529 100.439 37.4352C100.703 37.6998 101.1 37.841 101.629 37.8586C102.159 37.8586 102.811 37.841 103.588 37.8057V39.8698C101.576 40.1345 100.103 39.9757 99.1683 39.3935C98.2332 38.7936 97.7657 37.6733 97.7657 36.0326V28.8609H95.1458V26.638H97.7657V23.6211L100.068 22.933V26.638H103.588V28.8609Z" fill="#16002B"/>
<path d="M112.903 26.2939C114.455 26.2939 115.699 26.7879 116.634 27.7759C117.569 28.7462 118.037 30.0694 118.037 31.7455V39.8698H115.735V31.8778C115.735 30.8016 115.443 29.9724 114.861 29.3902C114.279 28.7903 113.476 28.4904 112.453 28.4904C111.306 28.4904 110.38 28.8521 109.674 29.5754C108.969 30.2811 108.616 31.375 108.616 32.8569V39.8698H106.313V21.3452H108.616V28.5433C109.551 27.0437 110.98 26.2939 112.903 26.2939Z" fill="#16002B"/>
<path d="M122.865 34.3125C123.095 35.4945 123.633 36.4119 124.48 37.0647C125.344 37.7175 126.403 38.0438 127.655 38.0438C129.402 38.0438 130.672 37.3999 131.466 36.112L133.424 37.2235C132.136 39.2171 130.196 40.2139 127.602 40.2139C125.503 40.2139 123.792 39.5611 122.468 38.2556C121.163 36.9324 120.51 35.2651 120.51 33.2539C120.51 31.2603 121.154 29.6019 122.442 28.2787C123.73 26.9555 125.397 26.2939 127.444 26.2939C129.384 26.2939 130.963 26.982 132.181 28.3581C133.416 29.7166 134.033 31.3573 134.033 33.2804C134.033 33.6156 134.007 33.9596 133.954 34.3125H122.865ZM127.444 28.464C126.209 28.464 125.185 28.8168 124.374 29.5225C123.562 30.2106 123.059 31.1368 122.865 32.3012H131.704C131.51 31.0486 131.016 30.0959 130.222 29.4431C129.428 28.7903 128.502 28.464 127.444 28.464Z" fill="#16002B"/>
<path d="M138.982 28.8609C139.741 27.2202 141.117 26.3998 143.11 26.3998V28.808C141.981 28.7551 141.011 29.055 140.199 29.7078C139.388 30.3605 138.982 31.4103 138.982 32.8569V39.8698H136.68V26.638H138.982V28.8609Z" fill="#16002B"/>
<path fill-rule="evenodd" clip-rule="evenodd" d="M14.9797 39.8861L30.96 15.7108C33.2728 12.2119 31.5291 7.47368 27.5 6.30863L17.7193 3.48046C7.97687 0.663386 -0.368901 10.9331 4.38114 19.8934L14.9797 39.8861ZM14.6395 40.4008C14.6393 40.401 14.6396 40.4006 14.6395 40.4008V40.4008ZM12.6181 41.8363C13.5544 43.6026 16.0398 43.7227 17.1421 42.0551L33.4626 17.3651C36.8913 12.1781 34.3064 5.15384 28.3333 3.4267L18.5526 0.598525C6.26548 -2.95437 -4.2602 9.99781 1.73056 21.2986L12.6181 41.8363Z" fill="#FF1F73"/>
<path fill-rule="evenodd" clip-rule="evenodd" d="M29.5561 39.8861L40.1547 19.8934C44.9047 10.9331 36.559 0.663386 26.8166 3.48046L17.0358 6.30863C13.0067 7.47368 11.263 12.2119 13.5758 15.7108L29.5561 39.8861ZM31.9178 41.8363C30.9815 43.6026 28.496 43.7227 27.3937 42.0551L11.0732 17.3651C7.6445 12.1781 10.2294 5.15384 16.2025 3.4267L25.9832 0.598525C38.2703 -2.95437 48.796 9.99781 42.8053 21.2986L31.9178 41.8363Z" fill="#FF1F73"/>
</svg>
