<svg width="45" height="44" viewBox="0 0 45 44" fill="none" xmlns="http://www.w3.org/2000/svg">
<path fill-rule="evenodd" clip-rule="evenodd" d="M14.9797 39.8861L30.96 15.7108C33.2728 12.2119 31.5291 7.47368 27.5 6.30863L17.7193 3.48046C7.97687 0.663386 -0.368901 10.9331 4.38114 19.8934L14.9797 39.8861ZM14.6395 40.4008C14.6393 40.401 14.6396 40.4006 14.6395 40.4008ZM12.6181 41.8363C13.5544 43.6026 16.0398 43.7227 17.1421 42.0551L33.4626 17.3651C36.8913 12.1781 34.3064 5.15384 28.3333 3.4267L18.5526 0.598525C6.26548 -2.95437 -4.2602 9.99781 1.73056 21.2986L12.6181 41.8363Z" fill="#FF1F73"/>
<path fill-rule="evenodd" clip-rule="evenodd" d="M29.5561 39.8861L40.1547 19.8934C44.9047 10.9331 36.559 0.663386 26.8166 3.48046L17.0358 6.30863C13.0067 7.47368 11.263 12.2119 13.5758 15.7108L29.5561 39.8861ZM31.9178 41.8363C30.9815 43.6026 28.496 43.7227 27.3937 42.0551L11.0732 17.3651C7.6445 12.1781 10.2294 5.15384 16.2025 3.4267L25.9832 0.598525C38.2703 -2.95437 48.796 9.99781 42.8053 21.2986L31.9178 41.8363Z" fill="#FF1F73"/>
</svg>
